<svg width="41" height="41" viewBox="0 0 41 41" fill="none" xmlns="http://www.w3.org/2000/svg">
<path d="M30.75 36.5H4.5V10.25H21.375V6.5H4.5C2.4375 6.5 0.75 8.1875 0.75 10.25V36.5C0.75 38.5625 2.4375 40.25 4.5 40.25H30.75C32.8125 40.25 34.5 38.5625 34.5 36.5V19.625H30.75V36.5ZM16.1438 30.5562L12.4688 26.1313L7.3125 32.75H27.9375L21.3 23.9188L16.1438 30.5562ZM34.5 6.5V0.875H30.75V6.5H25.125C25.1437 6.51875 25.125 10.25 25.125 10.25H30.75V15.8562C30.7687 15.875 34.5 15.8562 34.5 15.8562V10.25H40.125V6.5H34.5Z" fill="#CE2D4F"/>
</svg>
