<svg width="22" height="21" viewBox="0 0 22 21" fill="none" xmlns="http://www.w3.org/2000/svg">
<path d="M4.02542 7.13232C3.07963 7.37032 2.25329 7.94548 1.70167 8.74977C1.15005 9.55405 0.911099 10.5321 1.02972 11.5001C1.14835 12.4681 1.61638 13.3595 2.34588 14.0068C3.07538 14.6541 4.01615 15.0127 4.99142 15.0153H5.99142M10.9914 10.0153V19.0153V10.0153ZM10.9914 10.0153L8.49142 12.0153L10.9914 10.0153ZM10.9914 10.0153L13.4914 12.0153L10.9914 10.0153Z" stroke="#C6AE25" stroke-width="2" stroke-linecap="round" stroke-linejoin="round"/>
<path d="M14.8209 5.15334C14.4791 3.79992 13.6355 2.62708 12.461 1.8726C11.2866 1.11812 9.86916 0.838434 8.49614 1.09025C7.12312 1.34206 5.89722 2.10653 5.06694 3.22868C4.23667 4.35084 3.86414 5.74671 4.02488 7.13334C4.02488 7.13334 4.17788 8.01534 4.49088 8.51534" stroke="#C6AE25" stroke-width="2" stroke-linecap="round" stroke-linejoin="round"/>
<path d="M15.9922 15.0154C16.6982 15.0149 17.3962 14.8649 18.04 14.5752C18.6839 14.2856 19.2592 13.8628 19.7279 13.3349C20.1966 12.8069 20.5482 12.1856 20.7596 11.5119C20.9709 10.8382 21.0371 10.1274 20.954 9.42633C20.8708 8.7252 20.6401 8.04965 20.277 7.44412C19.9139 6.83859 19.4267 6.31683 18.8474 5.91317C18.2682 5.5095 17.61 5.2331 16.9162 5.10214C16.2224 4.97118 15.5087 4.98865 14.8222 5.15338L13.4922 5.51538" stroke="#C6AE25" stroke-width="2" stroke-linecap="round" stroke-linejoin="round"/>
</svg>
