<svg width="17" height="29" viewBox="0 0 17 29" fill="none" xmlns="http://www.w3.org/2000/svg">
<path d="M13.7308 0H3.26923C2.40218 0 1.57064 0.347199 0.957536 0.965216C0.344436 1.58323 0 2.42145 0 3.29545V25.7045C0 26.5786 0.344436 27.4168 0.957536 28.0348C1.57064 28.6528 2.40218 29 3.26923 29H13.7308C14.5978 29 15.4294 28.6528 16.0425 28.0348C16.6556 27.4168 17 26.5786 17 25.7045V3.29545C17 2.42145 16.6556 1.58323 16.0425 0.965216C15.4294 0.347199 14.5978 0 13.7308 0ZM8.5 27.6818C7.41462 27.6818 6.53846 26.7986 6.53846 25.7045C6.53846 24.6105 7.41462 23.7273 8.5 23.7273C9.58538 23.7273 10.4615 24.6105 10.4615 25.7045C10.4615 26.7986 9.58538 27.6818 8.5 27.6818ZM14.3846 22.4091H2.61538V3.95455H14.3846V22.4091Z" fill="#CE2D4F"/>
</svg>
