<svg width="33" height="33" viewBox="0 0 33 33" fill="none" xmlns="http://www.w3.org/2000/svg">
<path d="M32.9128 11.847C32.8091 11.5416 32.6182 11.2732 32.3637 11.075C32.1091 10.8768 31.8021 10.7575 31.4806 10.7318L22.0739 9.98442L18.0033 0.974967C17.8737 0.684791 17.6628 0.438329 17.3962 0.265326C17.1295 0.0923237 16.8185 0.000174677 16.5007 2.48092e-07C16.1828 -0.000174181 15.8717 0.0916335 15.6049 0.264343C15.3381 0.437053 15.1269 0.683284 14.997 0.973318L10.9264 9.98442L1.5197 10.7318C1.20365 10.7568 0.901506 10.8724 0.649413 11.0646C0.397319 11.2568 0.205953 11.5176 0.0982076 11.8157C-0.00953768 12.1139 -0.0290995 12.4367 0.0418627 12.7457C0.112825 13.0546 0.271306 13.3366 0.498346 13.5578L7.44984 20.3335L4.99132 30.9779C4.91667 31.3001 4.9406 31.6373 5.06 31.9457C5.17939 32.2542 5.38875 32.5196 5.6609 32.7076C5.93305 32.8956 6.25543 32.9974 6.5862 33C6.91696 33.0025 7.24085 32.9055 7.51584 32.7217L16.5001 26.733L25.4844 32.7217C25.7655 32.9083 26.097 33.0043 26.4342 32.9969C26.7715 32.9896 27.0984 32.8791 27.3711 32.6803C27.6437 32.4816 27.8489 32.2042 27.9591 31.8854C28.0693 31.5666 28.0792 31.2217 27.9875 30.8971L24.9696 20.3385L32.4541 13.604C32.9441 13.1619 33.124 12.4723 32.9128 11.847Z" fill="#C6AE25"/>
</svg>
