<svg width="25" height="25" viewBox="0 0 25 25" fill="none" xmlns="http://www.w3.org/2000/svg">
<path fill-rule="evenodd" clip-rule="evenodd" d="M24.4648 12C24.4648 5.37258 19.0923 0 12.4648 0C5.83743 0 0.464844 5.37258 0.464844 12C0.464844 5.373 5.83784 0 12.4648 0C19.0918 0 24.4648 5.373 24.4648 12ZM5.89684 11.873C9.39484 10.349 11.7278 9.344 12.8948 8.859C16.2278 7.473 16.9198 7.232 17.3708 7.224C17.4708 7.222 17.6928 7.247 17.8358 7.364C17.9319 7.44693 17.9933 7.56293 18.0078 7.689C18.0321 7.84509 18.0389 8.00341 18.0278 8.161C17.8468 10.059 17.0648 14.663 16.6678 16.789C16.4998 17.688 16.1678 17.989 15.8478 18.019C15.2958 18.069 14.8488 17.751 14.3518 17.396C14.2208 17.303 14.0868 17.208 13.9468 17.116C13.3948 16.754 12.9688 16.464 12.5418 16.173L12.5077 16.1498C12.128 15.8914 11.7446 15.6306 11.2688 15.317C10.2488 14.645 10.6748 14.233 11.2448 13.685C11.3368 13.596 11.4328 13.503 11.5268 13.406C11.5688 13.362 11.7738 13.171 12.0638 12.902C12.9938 12.038 14.7878 10.369 14.8338 10.176C14.8408 10.144 14.8478 10.026 14.7778 9.964C14.7078 9.901 14.6038 9.923 14.5288 9.94C14.4228 9.964 12.7358 11.079 9.46784 13.286C8.98884 13.614 8.55484 13.774 8.16584 13.766C7.73784 13.757 6.91384 13.524 6.30084 13.325C6.23648 13.3035 6.17314 13.2836 6.11118 13.2641C6.08651 13.2564 6.06205 13.2487 6.03784 13.241C5.41584 13.046 4.95784 12.902 5.00384 12.536C5.03084 12.32 5.32884 12.099 5.89684 11.873Z" fill="#CE2D4F"/>
<circle cx="12" cy="12.2239" r="11" stroke="#CE2D4F" stroke-width="2"/>
</svg>
