<svg width="24" height="24" viewBox="0 0 24 24" fill="none" xmlns="http://www.w3.org/2000/svg">
<path fill-rule="evenodd" clip-rule="evenodd" d="M18.0008 14.79C17.7391 14.3038 16.6786 13.2562 16.6786 13.2562C15.7001 12.3401 15.7001 12.2788 16.62 11.0713L17.0751 10.4725C18.0907 9.09631 18.1551 8.64258 18.1005 8.49377C18.0692 8.40002 17.9032 8.36377 17.661 8.36377H15.4344C15.3817 8.36316 15.327 8.37561 15.2801 8.40002C15.2137 8.43872 15.159 8.53882 15.1415 8.57129C14.9325 9.11938 14.6825 9.65161 14.3973 10.1638C13.4696 11.755 13.1278 11.755 13.0126 11.755C12.9637 11.7549 12.913 11.7406 12.87 11.7137C12.6493 11.5671 12.5848 11.2781 12.5712 10.9625C12.5633 10.8126 12.5673 10.6569 12.5712 10.5076L12.5751 10.2676C12.5751 9.92249 12.5868 9.63 12.5965 9.37134C12.6337 8.46008 12.6239 8.19373 12.2118 8.09497C12.0087 8.04382 11.8641 8.00757 11.3016 8H11.0126C10.7274 8 10.4423 8.00635 10.1962 8.03589C9.99108 8.0603 9.81139 8.10059 9.68053 8.16626C9.58288 8.2157 9.49694 8.28821 9.43248 8.37756C9.59264 8.40747 9.85631 8.48877 10.0106 8.70251C10.1454 8.88525 10.1962 9.1908 10.2157 9.41089C10.2274 9.54602 10.2274 9.64893 10.2274 9.67126C10.2352 9.80908 10.2567 10.1788 10.2411 10.5695C10.2196 11.0648 10.1395 11.5936 9.90319 11.725C9.86217 11.7478 9.8153 11.7622 9.76842 11.7676L9.72936 11.77C9.40514 11.77 9.0028 11.3 8.34264 10.1426C7.98913 9.52332 7.7567 8.96411 7.65709 8.72583L7.62194 8.64258C7.5653 8.50623 7.48131 8.35254 7.22936 8.35254H5.33678C5.12389 8.35254 4.93053 8.47375 5.02428 8.70007C5.03795 8.73254 6.52428 12.23 8.17663 13.9738C9.52623 15.3976 11.0516 15.5 11.3426 15.5H12.202C12.3602 15.5 12.5868 15.3363 12.5868 15.0513C12.5868 14.4829 12.7059 14.1356 12.8544 13.9358C12.9442 13.8148 13.0438 13.7479 13.1337 13.7188C13.1708 13.7063 13.2118 13.7 13.2528 13.7001C13.5692 13.7001 13.8837 14.0651 14.2489 14.4875C14.493 14.7712 14.743 15.0625 14.995 15.24C15.3251 15.4675 15.5985 15.5012 15.7274 15.5012H17.6024C17.7059 15.4938 18.0067 15.4088 18.0926 15.2363C18.1454 15.1326 18.12 14.9938 18.0145 14.8151L18.0008 14.79Z" fill="#CE2D4F"/>
<circle cx="12" cy="12" r="11" stroke="#CE2D4F" stroke-width="2"/>
</svg>
