<svg width="24" height="24" viewBox="0 0 24 24" fill="none" xmlns="http://www.w3.org/2000/svg">
<circle cx="12" cy="12" r="12" fill="#CE2D4F"/>
<path d="M14.6993 13.1773C14.5533 13.1023 13.8261 12.7461 13.6908 12.6978C13.5555 12.6469 13.4564 12.6228 13.3586 12.7728C13.2595 12.9215 12.9783 13.2523 12.8899 13.3527C12.8042 13.4519 12.7171 13.4639 12.5711 13.3902C11.7033 12.9563 11.1341 12.6161 10.5622 11.6344C10.4109 11.3733 10.7136 11.392 10.9961 10.8282C11.0444 10.7291 11.0203 10.6447 10.9828 10.5697C10.9453 10.4947 10.6506 9.76882 10.5274 9.47284C10.4082 9.18489 10.285 9.22507 10.1953 9.21971C10.1095 9.21436 10.0118 9.21436 9.91267 9.21436C9.81356 9.21436 9.65419 9.25186 9.51892 9.39784C9.38365 9.5465 9.00195 9.90409 9.00195 10.63C9.00195 11.3559 9.53097 12.059 9.60329 12.1581C9.67829 12.2572 10.6439 13.7465 12.1265 14.388C13.064 14.7925 13.431 14.8273 13.8997 14.7577C14.185 14.7148 14.7729 14.4014 14.8948 14.0545C15.0167 13.709 15.0167 13.413 14.9805 13.3514C14.9444 13.2858 14.8453 13.2483 14.6993 13.1773Z" fill="white"/>
<path d="M17.534 9.675C17.2313 8.9558 16.7974 8.31027 16.2443 7.7558C15.6911 7.20268 15.0456 6.76741 14.3251 6.46607C13.5885 6.1567 12.8063 6 12.0001 6H11.9733C11.1617 6.00402 10.3755 6.16473 9.63624 6.4808C8.9224 6.78616 8.28222 7.22009 7.73445 7.77321C7.18668 8.32634 6.75677 8.9692 6.45945 9.68571C6.15142 10.4277 5.99606 11.2165 6.00008 12.0281C6.00409 12.9576 6.22642 13.8804 6.64293 14.7054V16.7411C6.64293 17.0813 6.91883 17.3571 7.259 17.3571H9.29606C10.1211 17.7737 11.0438 17.996 11.9733 18H12.0014C12.8036 18 13.5818 17.8446 14.3144 17.5406C15.0309 17.242 15.6751 16.8134 16.2269 16.2656C16.78 15.7179 17.2153 15.0777 17.5193 14.3638C17.8353 13.6246 17.9961 12.8384 18.0001 12.0268C18.0041 11.2112 17.8461 10.4196 17.534 9.675V9.675ZM15.5103 15.5411C14.5715 16.4705 13.326 16.9821 12.0001 16.9821H11.9773C11.1697 16.9781 10.3675 16.7772 9.659 16.3996L9.5465 16.3393H7.66079V14.4536L7.60052 14.3411C7.22284 13.6326 7.02195 12.8304 7.01793 12.0228C7.01258 10.6875 7.52284 9.43393 8.459 8.48973C9.39383 7.54554 10.6434 7.02321 11.9786 7.01786H12.0014C12.6711 7.01786 13.3206 7.14777 13.9327 7.40491C14.53 7.65536 15.0657 8.01562 15.5264 8.47634C15.9858 8.93571 16.3474 9.47277 16.5978 10.0701C16.8577 10.6888 16.9876 11.3451 16.9849 12.0228C16.9769 13.3567 16.4532 14.6063 15.5103 15.5411V15.5411Z" fill="white"/>
</svg>
