<svg width="24" height="24" viewBox="0 0 24 24" fill="none" xmlns="http://www.w3.org/2000/svg">
<path d="M14.6973 12.9629C14.5513 12.8879 13.8241 12.5317 13.6888 12.4835C13.5536 12.4326 13.4545 12.4085 13.3567 12.5585C13.2576 12.7071 12.9763 13.0379 12.8879 13.1384C12.8022 13.2375 12.7152 13.2496 12.5692 13.1759C11.7013 12.742 11.1321 12.4018 10.5603 11.4201C10.4089 11.1589 10.7116 11.1777 10.9942 10.6138C11.0424 10.5147 11.0183 10.4304 10.9808 10.3554C10.9433 10.2804 10.6487 9.55446 10.5254 9.25848C10.4062 8.97054 10.283 9.01071 10.1933 9.00536C10.1076 9 10.0098 9 9.91071 9C9.81161 9 9.65223 9.0375 9.51696 9.18348C9.3817 9.33214 9 9.68973 9 10.4156C9 11.1415 9.52902 11.8446 9.60134 11.9437C9.67634 12.0429 10.642 13.5321 12.1246 14.1737C13.0621 14.5781 13.429 14.6129 13.8978 14.5433C14.183 14.5004 14.771 14.1871 14.8929 13.8402C15.0147 13.4946 15.0147 13.1987 14.9786 13.1371C14.9424 13.0714 14.8433 13.0339 14.6973 12.9629Z" fill="#CE2D4F"/>
<path d="M17.534 9.675C17.2313 8.9558 16.7974 8.31027 16.2443 7.7558C15.6911 7.20268 15.0456 6.76741 14.3251 6.46607C13.5885 6.1567 12.8063 6 12.0001 6H11.9733C11.1617 6.00402 10.3755 6.16473 9.63624 6.4808C8.9224 6.78616 8.28222 7.22009 7.73445 7.77321C7.18668 8.32634 6.75677 8.9692 6.45945 9.68571C6.15142 10.4277 5.99606 11.2165 6.00008 12.0281C6.00409 12.9576 6.22642 13.8804 6.64293 14.7054V16.7411C6.64293 17.0813 6.91883 17.3571 7.259 17.3571H9.29606C10.1211 17.7737 11.0438 17.996 11.9733 18H12.0014C12.8036 18 13.5818 17.8446 14.3144 17.5406C15.0309 17.242 15.6751 16.8134 16.2269 16.2656C16.78 15.7179 17.2153 15.0777 17.5193 14.3638C17.8353 13.6246 17.9961 12.8384 18.0001 12.0268C18.0041 11.2112 17.8461 10.4196 17.534 9.675V9.675ZM15.5103 15.5411C14.5715 16.4705 13.326 16.9821 12.0001 16.9821H11.9773C11.1697 16.9781 10.3675 16.7772 9.659 16.3996L9.5465 16.3393H7.66079V14.4536L7.60052 14.3411C7.22284 13.6326 7.02195 12.8304 7.01793 12.0228C7.01258 10.6875 7.52284 9.43393 8.459 8.48973C9.39383 7.54554 10.6434 7.02321 11.9786 7.01786H12.0014C12.6711 7.01786 13.3206 7.14777 13.9327 7.40491C14.53 7.65536 15.0657 8.01562 15.5264 8.47634C15.9858 8.93571 16.3474 9.47277 16.5978 10.0701C16.8577 10.6888 16.9876 11.3451 16.9849 12.0228C16.9769 13.3567 16.4532 14.6063 15.5103 15.5411V15.5411Z" fill="#CE2D4F"/>
<circle cx="12" cy="12" r="11" stroke="#CE2D4F" stroke-width="2"/>
</svg>
